<svg fill="none" height="24" viewBox="0 0 24 24" width="24" xmlns="http://www.w3.org/2000/svg"><g fill="#1c274d"><path clip-rule="evenodd" d="m2 12v-4c0-2.82843 0-4.24264.87868-5.12132s2.29289-.87868 5.12132-.87868h8c2.8284 0 4.2426 0 5.1213.87868s.8787 2.29289.8787 5.12132v4c0 2.8284 0 4.2426-.8787 5.1213-.4763.4764-1.11.6945-2.0411.7943-.074-.0999-.144-.1786-.194-.2335-.1161-.1277-.2634-.2729-.4062-.4137l-1.493-1.4722-.5513-.5585c-.3624-2.1226-2.2102-3.7377-4.4356-3.7377-2.22549 0-4.0733 1.6151-4.43564 3.7377l-.55135.5585-1.49291 1.4721c-.14281.1408-.29012.286-.40628.4138-.04997.0549-.12002.1336-.19402.2335-.93113-.0998-1.56487-.3179-2.04122-.7943-.87868-.8787-.87868-2.2929-.87868-5.1213zm7-6.75c-.41421 0-.75.33579-.75.75s.33579.75.75.75h6c.4142 0 .75-.33579.75-.75s-.3358-.75-.75-.75zm-2.75 4.25c0-.41421.33579-.75.75-.75h10c.4142 0 .75.33579.75.75s-.3358.75-.75.75h-10c-.41421 0-.75-.33579-.75-.75z" fill-rule="evenodd"/><path d="m15 16c0 1.6569-1.3431 3-3 3s-3-1.3431-3-3 1.3431-3 3-3 3 1.3431 3 3z"/><path d="m9.00111 15.9174c-.00074.0275-.00111.055-.00111.0826 0 1.6569 1.3431 3 3 3s3-1.3431 3-3c0-.0276-.0004-.0551-.0011-.0826-.0438-1.6187-1.3697-2.9174-2.9989-2.9174-1.5533 0-2.83088 1.1805-2.98451 2.6933-.00751.0739-.01234.1487-.01438.2241z"/><path d="m7.6757 17.2494-1.08047 1.0654c-.32407.3196-.4861.4794-.54217.6147-.12777.3083-.01843.6504.25977.8126.12208.0711.34229.0933.7827.1377.24867.025.373.0375.47713.0756.23313.0851.41449.2639.50079.4938.03855.1027.05125.2253.07665.4705.04499.4343.06748.6514.13967.7718.16448.2744.51134.3822.82403.2562.13722-.0553.29926-.2151.62333-.5347l1.08037-1.07c-1.51245-.4108-2.70833-1.5906-3.1418-3.0936z"/><path d="m13.1825 20.343 1.0804 1.07c.324.3196.4861.4794.6233.5347.3127.126.6595.0182.824-.2562.0722-.1204.0947-.3375.1397-.7718.0254-.2452.0381-.3678.0766-.4705.0864-.2299.2677-.4087.5008-.4938.1042-.0381.2285-.0506.4772-.0756.4404-.0444.6606-.0666.7827-.1377.2782-.1622.3875-.5043.2597-.8126-.056-.1353-.2181-.2951-.5421-.6147l-1.0805-1.0654c-.4335 1.503-1.6294 2.6828-3.1418 3.0936z"/></g></svg>