<svg xmlns="http://www.w3.org/2000/svg" xmlns:xlink="http://www.w3.org/1999/xlink" version="1.1" x="0px" y="0px" viewBox="0 0 96 120" style="enable-background:new 0 0 96 96;" xml:space="preserve"><style type="text/css">
	.st0{fill-rule:evenodd;clip-rule:evenodd;}
</style><path class="st0" d="M76.857,88.898l-5.718-3.131c-0.973-0.529-2.138-0.529-3.119,0l-5.768,3.142V78.38  c2.264,0.906,4.729,1.404,7.302,1.404c2.582,0,5.039-0.498,7.302-1.404V88.898L76.857,88.898z M16.627,28.806  c-1.786,0-3.245-1.456-3.245-3.251c0-1.795,1.459-3.249,3.245-3.249H47.12c1.786,0,3.244,1.454,3.244,3.249  c0,1.795-1.459,3.251-3.244,3.251H16.627L16.627,28.806L16.627,28.806z M38.258,49.19H16.627c-1.786,0-3.245-1.454-3.245-3.249  c0-1.795,1.459-3.249,3.245-3.249h21.631c1.785,0,3.244,1.454,3.244,3.249C41.502,47.737,40.043,49.19,38.258,49.19L38.258,49.19  L38.258,49.19z M2.5,64.405h47.839c-0.31-1.389-0.469-2.831-0.469-4.312c0-10.858,8.828-19.693,19.685-19.693  c10.857,0,19.694,8.835,19.694,19.693c0,1.48-0.168,2.923-0.47,4.312h4.72V7.09H2.5V64.405L2.5,64.405z M69.555,73.284  c-7.269,0-13.188-5.917-13.188-13.191c0-7.273,5.919-13.194,13.188-13.194c7.269,0,13.196,5.921,13.196,13.194  C82.751,67.367,76.824,73.284,69.555,73.284L69.555,73.284z"/><text x="0" y="111" fill="#000000" font-size="5px" font-weight="bold" font-family="'Helvetica Neue', Helvetica, Arial-Unicode, Arial, Sans-serif">Created by Eko Purnomo</text><text x="0" y="116" fill="#000000" font-size="5px" font-weight="bold" font-family="'Helvetica Neue', Helvetica, Arial-Unicode, Arial, Sans-serif">from the Noun Project</text></svg>